<svg xmlns="http://www.w3.org/2000/svg" width="328" height="328" viewBox="0 0 328 328"><rect width="100%" height="100%" fill="#DDDDDD"/><path fill="#999999" d="m69.35 157.465-2.86-.51q.33-2.28 1.28-4.01t2.36-2.88q1.42-1.16 3.26-1.74 1.84-.58 3.95-.58 2.2 0 3.97.62 1.77.63 3.03 1.74 1.25 1.11 1.92 2.61.67 1.49.67 3.23 0 1.52-.34 2.67-.34 1.16-.98 2.02-.64.86-1.58 1.45-.95.59-2.14.99 2.86.9 4.27 2.75 1.41 1.85 1.41 4.64 0 2.38-.88 4.2-.88 1.83-2.38 3.07-1.49 1.25-3.46 1.88-1.97.64-4.17.64-2.4 0-4.18-.55-1.78-.55-3.1-1.63-1.32-1.07-2.25-2.64-.92-1.56-1.58-3.6l2.4-.99q.94-.4 1.77-.21.82.18 1.2.89.39.77.87 1.52.47.74 1.13 1.33.66.58 1.55.94.89.37 2.12.37 1.39 0 2.42-.45 1.04-.46 1.73-1.18.69-.73 1.03-1.62.35-.89.35-1.79 0-1.15-.25-2.08-.24-.94-1.01-1.6-.77-.66-2.21-1.03t-3.86-.37v-3.88q2-.02 3.32-.37 1.32-.35 2.1-.98t1.09-1.51q.31-.88.31-1.93 0-2.25-1.25-3.41-1.26-1.17-3.35-1.17-.97 0-1.78.28-.81.27-1.46.77-.65.49-1.09 1.15-.44.66-.66 1.45-.38 1.02-.98 1.35-.61.33-1.71.15Zm33.71 17.38h8.16q.88 0 1.4.5.51.49.51 1.3v3.26H91.31v-1.8q0-.55.23-1.16.23-.6.74-1.09l9.66-9.68q1.21-1.23 2.16-2.35.96-1.12 1.6-2.22.64-1.1.98-2.24.34-1.13.34-2.38 0-1.15-.33-2.02-.33-.87-.94-1.46-.6-.59-1.45-.89-.85-.3-1.9-.3-.97 0-1.8.28-.82.27-1.46.77-.64.49-1.08 1.15-.44.66-.66 1.45-.37 1.02-.96 1.35-.6.33-1.72.15l-2.86-.51q.33-2.28 1.28-4.01.94-1.73 2.36-2.88 1.42-1.16 3.26-1.74 1.83-.58 3.95-.58 2.2 0 4.02.65 1.83.64 3.13 1.83 1.29 1.19 2.02 2.86t.73 3.72q0 1.76-.52 3.26-.52 1.49-1.39 2.86-.87 1.36-2.03 2.64-1.17 1.27-2.44 2.59l-7.18 7.33q1.04-.31 2.06-.47 1.02-.17 1.95-.17Zm24.86 1.17q1.34 0 2.35-.39 1.01-.38 1.71-1.07.69-.68 1.04-1.62.35-.95.35-2.05 0-2.62-1.45-3.96-1.45-1.34-4-1.34t-4.01 1.34q-1.45 1.34-1.45 3.96 0 1.1.35 2.05.36.94 1.05 1.62.69.69 1.7 1.07 1.02.39 2.36.39Zm0-24.18q-1.21 0-2.09.37-.88.38-1.47 1-.58.63-.85 1.44-.28.82-.28 1.72 0 .95.23 1.84.23.89.78 1.58.55.69 1.46 1.11.9.42 2.22.42 1.32 0 2.22-.42.9-.42 1.45-1.11.55-.69.78-1.58.23-.89.23-1.84 0-.9-.28-1.72-.29-.81-.86-1.44-.57-.62-1.45-1-.88-.37-2.09-.37Zm5.37 11.48q2.9.95 4.29 2.9 1.38 1.94 1.38 4.76 0 2.11-.8 3.83-.8 1.71-2.26 2.92-1.45 1.21-3.48 1.87-2.04.66-4.5.66-2.47 0-4.5-.66-2.04-.66-3.49-1.87-1.45-1.21-2.25-2.92-.81-1.72-.81-3.83 0-2.82 1.39-4.76 1.39-1.95 4.29-2.9-2.31-.97-3.47-2.75-1.15-1.78-1.15-4.29 0-1.8.74-3.36.73-1.57 2.05-2.72 1.32-1.16 3.16-1.8 1.84-.65 4.04-.65t4.03.65q1.84.64 3.16 1.8 1.32 1.15 2.06 2.72.74 1.56.74 3.36 0 2.51-1.16 4.29-1.15 1.78-3.46 2.75Zm41.22 9.31-2.88 2.84-7.46-7.46-7.52 7.5-2.88-2.84 7.52-7.54-7.17-7.18 2.86-2.86 7.17 7.18 7.13-7.13 2.9 2.86-7.15 7.15 7.48 7.48Zm18.31-15.16-2.86-.51q.33-2.28 1.27-4.01.95-1.73 2.37-2.88 1.42-1.16 3.25-1.74 1.84-.58 3.95-.58 2.2 0 3.97.62 1.78.63 3.03 1.74 1.25 1.11 1.92 2.61.68 1.49.68 3.23 0 1.52-.35 2.67-.34 1.16-.97 2.02-.64.86-1.59 1.45-.94.59-2.13.99 2.86.9 4.27 2.75 1.4 1.85 1.4 4.64 0 2.38-.88 4.2-.88 1.83-2.37 3.07-1.5 1.25-3.47 1.88-1.97.64-4.17.64-2.39 0-4.18-.55-1.78-.55-3.1-1.63-1.32-1.07-2.24-2.64-.93-1.56-1.59-3.6l2.4-.99q.95-.4 1.77-.21.83.18 1.2.89.4.77.87 1.52.47.74 1.13 1.33.66.58 1.55.94.9.37 2.13.37 1.38 0 2.42-.45 1.03-.46 1.72-1.18.7-.73 1.04-1.62.34-.89.34-1.79 0-1.15-.24-2.08-.24-.94-1.01-1.6-.77-.66-2.22-1.03-1.44-.37-3.86-.37v-3.88q2.01-.02 3.33-.37 1.32-.35 2.1-.98t1.09-1.51q.3-.88.3-1.93 0-2.25-1.25-3.41-1.25-1.17-3.34-1.17-.97 0-1.79.28-.81.27-1.46.77-.65.49-1.09 1.15-.44.66-.66 1.45-.37 1.02-.98 1.35-.6.33-1.7.15Zm33.7 17.38h8.16q.88 0 1.4.5.52.49.52 1.3v3.26h-21.83v-1.8q0-.55.23-1.16.24-.6.74-1.09l9.66-9.68q1.21-1.23 2.17-2.35.95-1.12 1.59-2.22.64-1.1.98-2.24.34-1.13.34-2.38 0-1.15-.33-2.02-.33-.87-.93-1.46-.61-.59-1.46-.89-.84-.3-1.9-.3-.97 0-1.79.28-.83.27-1.46.77-.64.49-1.08 1.15-.44.66-.66 1.45-.38 1.02-.97 1.35-.59.33-1.72.15l-2.86-.51q.33-2.28 1.28-4.01t2.36-2.88q1.42-1.16 3.26-1.74 1.84-.58 3.95-.58 2.2 0 4.03.65 1.82.64 3.12 1.83t2.02 2.86q.73 1.67.73 3.72 0 1.76-.52 3.26-.51 1.49-1.38 2.86-.87 1.36-2.04 2.64-1.16 1.27-2.44 2.59l-7.17 7.33q1.03-.31 2.05-.47 1.03-.17 1.95-.17Zm24.86 1.17q1.34 0 2.36-.39 1.01-.38 1.7-1.07.69-.68 1.05-1.62.35-.95.35-2.05 0-2.62-1.45-3.96-1.46-1.34-4.01-1.34t-4 1.34q-1.45 1.34-1.45 3.96 0 1.1.35 2.05.35.94 1.04 1.62.7.69 1.71 1.07 1.01.39 2.35.39Zm0-24.18q-1.21 0-2.09.37-.88.38-1.46 1-.58.63-.86 1.44-.27.82-.27 1.72 0 .95.23 1.84.23.89.78 1.58.55.69 1.45 1.11.9.42 2.22.42 1.32 0 2.22-.42.91-.42 1.46-1.11.55-.69.78-1.58.23-.89.23-1.84 0-.9-.29-1.72-.28-.81-.86-1.44-.57-.62-1.45-1-.88-.37-2.09-.37Zm5.37 11.48q2.9.95 4.29 2.9 1.39 1.94 1.39 4.76 0 2.11-.81 3.83-.8 1.71-2.25 2.92t-3.49 1.87q-2.03.66-4.5.66-2.46 0-4.5-.66-2.03-.66-3.48-1.87-1.46-1.21-2.26-2.92-.8-1.72-.8-3.83 0-2.82 1.38-4.76 1.39-1.95 4.29-2.9-2.31-.97-3.46-2.75-1.16-1.78-1.16-4.29 0-1.8.74-3.36.74-1.57 2.06-2.72 1.32-1.16 3.15-1.8 1.84-.65 4.04-.65t4.04.65q1.84.64 3.16 1.8 1.32 1.15 2.05 2.72.74 1.56.74 3.36 0 2.51-1.16 4.29-1.15 1.78-3.46 2.75Z"/></svg>