<svg xmlns="http://www.w3.org/2000/svg" width="636" height="350" viewBox="0 0 636 350"><rect width="100%" height="100%" fill="#DDDDDD"/><path fill="#999999" d="m166.295 144.635-18.02 22.05-2.1 2.6q1.77-.88 3.8-1.36 2.04-.49 4.39-.49 3.45 0 6.7 1.14 3.26 1.13 5.73 3.42 2.48 2.29 3.99 5.69 1.52 3.4 1.52 7.94 0 4.24-1.56 7.96-1.55 3.72-4.37 6.49-2.81 2.77-6.78 4.37-3.97 1.59-8.76 1.59-4.87 0-8.73-1.55-3.87-1.56-6.6-4.35-2.73-2.79-4.18-6.72-1.44-3.93-1.44-8.71 0-4.29 1.74-8.8 1.74-4.52 5.4-9.39l14.49-19.45q.75-1 2.2-1.72 1.45-.71 3.34-.71h9.24Zm-15.67 52.92q2.48 0 4.56-.84 2.08-.84 3.57-2.35 1.49-1.52 2.33-3.55.84-2.04.84-4.43 0-2.61-.8-4.69-.79-2.08-2.26-3.53-1.47-1.44-3.53-2.2-2.06-.76-4.54-.76t-4.49.84q-2.02.84-3.45 2.33-1.42 1.5-2.22 3.53-.8 2.04-.8 4.39 0 2.52.69 4.6.7 2.08 2.06 3.55 1.37 1.47 3.38 2.29 2.02.82 4.66.82Zm34.44-35.03-5.46-.97q.63-4.36 2.44-7.66t4.51-5.5q2.71-2.21 6.22-3.32 3.51-1.11 7.54-1.11 4.2 0 7.58 1.19 3.38 1.2 5.78 3.32 2.39 2.12 3.67 4.98 1.28 2.85 1.28 6.17 0 2.9-.65 5.1-.65 2.21-1.87 3.85-1.22 1.64-3.02 2.77-1.81 1.13-4.08 1.89 5.46 1.72 8.15 5.25 2.69 3.53 2.69 8.86 0 4.54-1.68 8.02-1.68 3.49-4.54 5.86-2.85 2.38-6.61 3.59-3.76 1.22-7.96 1.22-4.58 0-7.98-1.05-3.4-1.05-5.92-3.11-2.52-2.05-4.29-5.04-1.76-2.98-3.02-6.88l4.58-1.89q1.8-.76 3.38-.4 1.57.35 2.29 1.7.75 1.47 1.66 2.9.9 1.42 2.16 2.54 1.26 1.11 2.96 1.8 1.7.7 4.05.7 2.65 0 4.62-.87 1.98-.86 3.3-2.24 1.32-1.39 1.97-3.09.66-1.7.66-3.42 0-2.19-.47-3.97-.46-1.79-1.93-3.05-1.47-1.26-4.22-1.97t-7.37-.71v-7.4q3.82-.04 6.34-.71 2.52-.67 4.01-1.87 1.49-1.2 2.08-2.88.59-1.68.59-3.69 0-4.29-2.39-6.51-2.4-2.23-6.39-2.23-1.85 0-3.4.53-1.55.52-2.79 1.47-1.24.94-2.08 2.2-.84 1.26-1.26 2.77-.72 1.94-1.87 2.57-1.16.63-3.26.29Zm78.67-17.89-18.02 22.05-2.1 2.6q1.77-.88 3.8-1.36 2.04-.49 4.39-.49 3.45 0 6.7 1.14 3.26 1.13 5.73 3.42 2.48 2.29 3.99 5.69 1.52 3.4 1.52 7.94 0 4.24-1.56 7.96-1.55 3.72-4.37 6.49-2.81 2.77-6.78 4.37-3.97 1.59-8.76 1.59-4.87 0-8.73-1.55-3.87-1.56-6.6-4.35-2.73-2.79-4.18-6.72-1.44-3.93-1.44-8.71 0-4.29 1.74-8.8 1.74-4.52 5.4-9.39l14.49-19.45q.75-1 2.2-1.72 1.45-.71 3.34-.71h9.24Zm-15.67 52.92q2.48 0 4.56-.84 2.08-.84 3.57-2.35 1.49-1.52 2.33-3.55.84-2.04.84-4.43 0-2.61-.8-4.69-.79-2.08-2.26-3.53-1.47-1.44-3.53-2.2-2.06-.76-4.54-.76t-4.49.84q-2.02.84-3.45 2.33-1.42 1.5-2.22 3.53-.8 2.04-.8 4.39 0 2.52.69 4.6.7 2.08 2.06 3.55 1.37 1.47 3.38 2.29 2.02.82 4.66.82Zm89.04-6.09-5.5 5.42-14.24-14.24-14.36 14.32-5.5-5.42 14.36-14.4-13.69-13.7 5.46-5.46 13.69 13.7 13.61-13.61 5.54 5.46-13.65 13.65 14.28 14.28Zm34.95-28.94-5.46-.97q.63-4.36 2.43-7.66 1.81-3.3 4.52-5.5 2.71-2.21 6.21-3.32 3.51-1.11 7.54-1.11 4.2 0 7.58 1.19 3.39 1.2 5.78 3.32t3.67 4.98q1.29 2.85 1.29 6.17 0 2.9-.66 5.1-.65 2.21-1.86 3.85-1.22 1.64-3.03 2.77-1.8 1.13-4.07 1.89 5.46 1.72 8.15 5.25 2.68 3.53 2.68 8.86 0 4.54-1.68 8.02-1.68 3.49-4.53 5.86-2.86 2.38-6.62 3.59-3.76 1.22-7.96 1.22-4.57 0-7.98-1.05-3.4-1.05-5.92-3.11-2.52-2.05-4.28-5.04-1.77-2.98-3.03-6.88l4.58-1.89q1.81-.76 3.38-.4 1.58.35 2.29 1.7.76 1.47 1.66 2.9.9 1.42 2.16 2.54 1.26 1.11 2.96 1.8 1.71.7 4.06.7 2.64 0 4.62-.87 1.97-.86 3.29-2.24 1.33-1.39 1.98-3.09.65-1.7.65-3.42 0-2.19-.46-3.97-.46-1.79-1.93-3.05-1.47-1.26-4.23-1.97-2.75-.71-7.37-.71v-7.4q3.83-.04 6.35-.71 2.52-.67 4.01-1.87 1.49-1.2 2.08-2.88.58-1.68.58-3.69 0-4.29-2.39-6.51-2.39-2.23-6.38-2.23-1.85 0-3.41.53-1.55.52-2.79 1.47-1.24.94-2.08 2.2-.84 1.26-1.26 2.77-.71 1.94-1.87 2.57-1.15.63-3.25.29Zm57.92-8.48-2.15 12.64q2.02-.42 3.87-.61t3.57-.19q4.79 0 8.44 1.43 3.65 1.43 6.13 3.95 2.48 2.52 3.74 5.9 1.26 3.38 1.26 7.28 0 4.83-1.7 8.82t-4.73 6.83q-3.02 2.83-7.16 4.39-4.13 1.55-9.01 1.55-2.85 0-5.41-.59-2.57-.58-4.81-1.57-2.25-.99-4.16-2.27-1.91-1.28-3.42-2.71l3.19-4.41q1.01-1.43 2.64-1.43 1.05 0 2.15.68 1.09.67 2.49 1.47 1.41.79 3.32 1.47 1.91.67 4.6.67 2.86 0 5.04-.93 2.19-.92 3.63-2.58 1.45-1.66 2.19-3.95.73-2.29.73-4.97 0-4.96-2.87-7.75-2.88-2.8-8.51-2.8-4.32 0-8.86 1.6l-6.47-1.85 5.04-29.48h29.99v4.41q0 2.22-1.39 3.61-1.38 1.39-4.7 1.39h-16.67Zm76.14 20.95q0 7.94-1.7 13.8t-4.7 9.68q-3.01 3.82-7.1 5.69-4.1 1.87-8.84 1.87-4.75 0-8.8-1.87-4.05-1.87-7.04-5.69-2.98-3.82-4.66-9.68-1.68-5.86-1.68-13.8 0-7.98 1.68-13.81 1.68-5.84 4.66-9.66 2.99-3.83 7.04-5.7 4.05-1.86 8.8-1.86 4.74 0 8.84 1.86 4.09 1.87 7.1 5.7 3 3.82 4.7 9.66 1.7 5.83 1.7 13.81Zm-10.71 0q0-6.59-.96-10.92-.97-4.32-2.59-6.88-1.61-2.57-3.71-3.6-2.1-1.02-4.37-1.02-2.23 0-4.31 1.02-2.08 1.03-3.67 3.6-1.6 2.56-2.54 6.88-.95 4.33-.95 10.92 0 6.6.95 10.92.94 4.33 2.54 6.89 1.59 2.56 3.67 3.59 2.08 1.03 4.31 1.03 2.27 0 4.37-1.03t3.71-3.59q1.62-2.56 2.59-6.89.96-4.32.96-10.92Z"/></svg>